<svg viewBox="0 0 24 24" fill="none" xmlns="http://www.w3.org/2000/svg">
  <g id="SVGRepo_bgCarrier" stroke-width="0"></g>
  <g id="SVGRepo_tracerCarrier" stroke-linecap="round" stroke-linejoin="round"></g>
  <g id="SVGRepo_iconCarrier">
    <path fill-rule="evenodd" clip-rule="evenodd" d="M5.36676 3.22604C5.79421 2.87631 6.42423 2.93932 6.77396 3.36676L12 9.75415L17.226 3.36676C17.5758 2.93932 18.2058 2.87631 18.6332 3.22604C19.0607 3.57577 19.1237 4.20579 18.774 4.63324L13.2921 11.3333L15.4739 14H16.5C18.433 14 20 15.567 20 17.5V18C20 19.6569 18.6569 21 17 21C15.3431 21 14 19.6569 14 18V15.357L12 12.9125L10 15.357V18C10 19.6569 8.65685 21 7 21C5.34315 21 4 19.6569 4 18V17.5C4 15.567 5.567 14 7.5 14H8.52612L10.7079 11.3333L5.22604 4.63324C4.87632 4.20579 4.93932 3.57577 5.36676 3.22604ZM8 16H7.5C6.67157 16 6 16.6716 6 17.5V18C6 18.5523 6.44772 19 7 19C7.55228 19 8 18.5523 8 18V16ZM16 16V18C16 18.5523 16.4477 19 17 19C17.5523 19 18 18.5523 18 18V17.5C18 16.6716 17.3284 16 16.5 16H16Z" fill="#000000"></path>
  </g>
</svg>