<svg viewBox="0 0 24 24" fill="none" xmlns="http://www.w3.org/2000/svg">
  <g id="SVGRepo_bgCarrier" stroke-width="0"></g>
  <g id="SVGRepo_tracerCarrier" stroke-linecap="round" stroke-linejoin="round"></g>
  <g id="SVGRepo_iconCarrier">
    <path d="M16.6173 10.9239C16.2436 10.7691 16 10.4045 16 10V7.5H7C6.33696 7.5 5.70107 7.76339 5.23223 8.23223C4.76339 8.70107 4.5 9.33696 4.5 10C4.5 10.5523 4.05228 11 3.5 11H2.5C1.94772 11 1.5 10.5523 1.5 10C1.5 8.54131 2.07946 7.14236 3.11091 6.11091C4.14236 5.07946 5.54131 4.5 7 4.5H16V2C16 1.59554 16.2436 1.2309 16.6173 1.07612C16.991 0.921338 17.4211 1.00689 17.7071 1.29289L21.7071 5.29289C22.0976 5.68342 22.0976 6.31658 21.7071 6.70711L17.7071 10.7071C17.4211 10.9931 16.991 11.0787 16.6173 10.9239Z" fill="#000000"></path>
    <g opacity="0.4">
      <path d="M7.38268 13.0761C7.75636 13.2309 8 13.5955 8 14V16.5H17C17.663 16.5 18.2989 16.2366 18.7678 15.7678C19.2366 15.2989 19.5 14.663 19.5 14C19.5 13.4477 19.9477 13 20.5 13H21.5C22.0523 13 22.5 13.4477 22.5 14C22.5 15.4587 21.9205 16.8576 20.8891 17.8891C19.8576 18.9205 18.4587 19.5 17 19.5H8V22C8 22.4045 7.75636 22.7691 7.38268 22.9239C7.00901 23.0787 6.57889 22.9931 6.29289 22.7071L2.29289 18.7071C1.90237 18.3166 1.90237 17.6834 2.29289 17.2929L6.29289 13.2929C6.57889 13.0069 7.00901 12.9213 7.38268 13.0761Z" fill="#000000"></path>
    </g>
  </g>
</svg>
