<?xml version="1.0" encoding="UTF-8" standalone="no"?>
<svg
   viewBox="0 0 384 512"
   version="1.1"
   id="svg12"
   sodipodi:docname="file-zxbasic.svg"
   inkscape:version="1.2.2 (732a01da63, 2022-12-09)"
   xmlns:inkscape="http://www.inkscape.org/namespaces/inkscape"
   xmlns:sodipodi="http://sodipodi.sourceforge.net/DTD/sodipodi-0.dtd"
   xmlns="http://www.w3.org/2000/svg"
   xmlns:svg="http://www.w3.org/2000/svg">
  <defs
     id="defs16" />
  <sodipodi:namedview
     id="namedview14"
     pagecolor="#000000"
     bordercolor="#000000"
     borderopacity="0.25"
     inkscape:showpageshadow="2"
     inkscape:pageopacity="0"
     inkscape:pagecheckerboard="0"
     inkscape:deskcolor="#d1d1d1"
     showgrid="false"
     inkscape:zoom="1.4183568"
     inkscape:cx="374.02436"
     inkscape:cy="333.83701"
     inkscape:window-width="1841"
     inkscape:window-height="1270"
     inkscape:window-x="951"
     inkscape:window-y="453"
     inkscape:window-maximized="0"
     inkscape:current-layer="svg12" />
  <!--! Font Awesome Pro 6.4.0 by @fontawesome - https://fontawesome.com License - https://fontawesome.com/license (Commercial License) Copyright 2023 Fonticons, Inc. -->
  <path
     d="M320 464c8.8 0 16-7.2 16-16V160H256c-17.7 0-32-14.3-32-32V48H64c-8.8 0-16 7.2-16 16V448c0 8.8 7.2 16 16 16H320zM0 64C0 28.7 28.7 0 64 0H229.5c17 0 33.3 6.7 45.3 18.7l90.5 90.5c12 12 18.7 28.3 18.7 45.3V448c0 35.3-28.7 64-64 64H64c-35.3 0-64-28.7-64-64V64z"
     id="path10"
     style="fill:#ffffff" />
  <g
     aria-label="ZX
BASIC"
     transform="scale(0.99478256,1.0052448)"
     id="text176"
     style="font-size:73.8973px;fill:#ffffff;stroke-width:6.15812">
    <path
       d="m 188.63939,329.19943 h -45.13941 v -10.06706 l 26.77334,-33.26822 h -25.47437 v -10.39181 h 42.39714 v 10.24748 l -26.73726,33.0878 h 28.18056 z"
       style="font-weight:bold;font-family:Verdana;-inkscape-font-specification:'Verdana Bold';text-align:center;text-anchor:middle"
       id="path200" />
    <path
       d="m 246.94898,329.19943 h -16.0207 l -11.58254,-17.6805 -11.79903,17.6805 h -15.29905 l 19.05165,-27.062 -18.65474,-26.66509 h 15.98462 l 11.18563,16.74236 11.51037,-16.74236 h 15.33513 l -18.76298,26.12385 z"
       style="font-weight:bold;font-family:Verdana;-inkscape-font-specification:'Verdana Bold';text-align:center;text-anchor:middle"
       id="path202" />
    <path
       d="m 116.87097,405.29879 q 0,3.89693 -1.58764,6.96395 -1.55155,3.06703 -4.29383,5.08766 -3.17528,2.38146 -7.00004,3.39177 -3.78868,1.01032 -9.634073,1.01032 H 70.901653 V 368.0254 h 20.855782 q 6.49488,0 9.489745,0.43299 3.03094,0.43299 5.98972,1.91238 3.06703,1.55155 4.54641,4.18559 1.51548,2.59795 1.51548,5.95364 0,3.89693 -2.05672,6.89179 -2.05671,2.95878 -5.8093,4.61858 v 0.28866 q 5.26806,1.0464 8.33509,4.32992 3.10311,3.28352 3.10311,8.65984 z M 99.118299,383.2162 q 0,-1.33506 -0.685571,-2.67012 -0.649488,-1.33506 -2.345373,-1.98455 -1.515472,-0.57732 -3.78868,-0.6134 -2.237126,-0.0722 -6.314467,-0.0722 H 84.685232 V 389.242 h 2.16496 q 3.283523,0 5.592813,-0.10824 2.309291,-0.10825 3.64435,-0.72166 1.876298,-0.8299 2.453621,-2.12888 0.577323,-1.33505 0.577323,-3.06702 z m 3.391771,21.86609 q 0,-2.56187 -1.01032,-3.93301 -0.97423,-1.40722 -3.355683,-2.09279 -1.62372,-0.46908 -4.474251,-0.50516 -2.850531,-0.0361 -5.95364,-0.0361 h -3.030944 v 13.38667 h 1.010315 q 5.845392,0 8.371178,-0.0361 2.525787,-0.0361 4.654664,-0.93815 2.164961,-0.90207 2.958781,-2.38146 0.8299,-1.51547 0.8299,-3.46394 z"
       style="font-weight:bold;font-family:Verdana;-inkscape-font-specification:'Verdana Bold';text-align:center;text-anchor:middle"
       id="path204" />
    <path
       d="M 176.84036,421.75249 H 162.51554 L 158.79903,410.8916 H 138.8814 l -3.71652,10.86089 h -13.96399 l 19.84547,-53.72709 h 15.94854 z m -21.39702,-20.71145 -6.60313,-19.26815 -6.60313,19.26815 z"
       style="font-weight:bold;font-family:Verdana;-inkscape-font-specification:'Verdana Bold';text-align:center;text-anchor:middle"
       id="path206" />
    <path
       d="m 227.57259,404.8658 q 0,7.93818 -6.74746,12.91759 -6.71137,4.94333 -18.25783,4.94333 -6.67529,0 -11.6547,-1.15465 -4.94332,-1.19073 -9.27324,-2.99486 V 405.6957 h 1.51547 q 4.29384,3.42785 9.59799,5.26807 5.34023,1.84021 10.24748,1.84021 1.26289,0 3.3196,-0.21649 2.05671,-0.2165 3.35569,-0.72165 1.58764,-0.64949 2.59795,-1.62372 1.0464,-0.97424 1.0464,-2.88662 0,-1.76805 -1.51547,-3.03094 -1.47939,-1.29898 -4.36601,-1.98455 -3.03094,-0.72165 -6.42271,-1.33506 -3.35569,-0.64949 -6.31447,-1.62372 -6.78354,-2.20104 -9.7784,-5.95364 -2.95878,-3.78868 -2.95878,-9.38149 0,-7.50519 6.71138,-12.23202 6.74746,-4.76292 17.31968,-4.76292 5.30415,0 10.46397,1.0464 5.1959,1.01032 8.98458,2.56187 v 12.37635 h -1.47938 q -3.24744,-2.59795 -7.97427,-4.32991 -4.69075,-1.76806 -9.59799,-1.76806 -1.73197,0 -3.46394,0.25258 -1.69588,0.2165 -3.28352,0.86599 -1.40723,0.54124 -2.41754,1.6598 -1.01031,1.08248 -1.01031,2.4897 0,2.12888 1.62372,3.28353 1.62372,1.11856 6.13405,2.05671 2.95878,0.6134 5.66498,1.19073 2.74228,0.57732 5.88147,1.58763 6.17014,2.02063 9.09283,5.52065 2.95878,3.46394 2.95878,9.02067 z"
       style="font-weight:bold;font-family:Verdana;-inkscape-font-specification:'Verdana Bold';text-align:center;text-anchor:middle"
       id="path208" />
    <path
       d="m 266.10887,421.75249 h -31.46408 v -9.52583 h 8.80417 v -34.67544 h -8.80417 v -9.52582 h 31.46408 v 9.52582 h -8.80417 v 34.67544 h 8.80417 z"
       style="font-weight:bold;font-family:Verdana;-inkscape-font-specification:'Verdana Bold';text-align:center;text-anchor:middle"
       id="path210" />
    <path
       d="m 301.68639,422.79888 q -5.98973,0 -11.07738,-1.76805 -5.05158,-1.76805 -8.69592,-5.26807 -3.64435,-3.50002 -5.66498,-8.732 -1.98455,-5.23199 -1.98455,-12.0877 0,-6.38663 1.91238,-11.58253 1.91238,-5.1959 5.55673,-8.91242 3.50002,-3.57218 8.65984,-5.52065 5.19591,-1.94846 11.32996,-1.94846 3.39177,0 6.09797,0.39691 2.74228,0.36082 5.05157,0.97423 2.41754,0.68557 4.36601,1.55155 1.98454,0.82991 3.46393,1.55156 v 13.02584 h -1.58764 q -1.01031,-0.86598 -2.56186,-2.05671 -1.51548,-1.19073 -3.46394,-2.34537 -1.98455,-1.15465 -4.29384,-1.94847 -2.30929,-0.79382 -4.94332,-0.79382 -2.9227,0 -5.55673,0.93815 -2.63404,0.90207 -4.87116,3.03095 -2.12888,2.05671 -3.46394,5.44848 -1.29898,3.39177 -1.29898,8.22685 0,5.05157 1.40723,8.44334 1.4433,3.39177 3.60826,5.34024 2.20105,1.98454 4.90725,2.85053 2.7062,0.8299 5.34023,0.8299 2.52579,0 4.97941,-0.75774 2.4897,-0.75773 4.5825,-2.05671 1.76805,-1.0464 3.28352,-2.23713 1.51547,-1.19072 2.48971,-2.05671 h 1.4433 v 12.84543 q -2.02063,0.90207 -3.86084,1.69589 -1.84022,0.79382 -3.86085,1.37114 -2.63403,0.75773 -4.94332,1.15464 -2.30929,0.39691 -6.35055,0.39691 z"
       style="font-weight:bold;font-family:Verdana;-inkscape-font-specification:'Verdana Bold';text-align:center;text-anchor:middle"
       id="path212" />
  </g>
</svg>
