<?xml version="1.0" encoding="UTF-8" standalone="no"?>
<svg
   viewBox="0 0 384 512"
   version="1.1"
   id="svg12"
   sodipodi:docname="file-zxforms.svg"
   inkscape:version="1.2.2 (732a01da63, 2022-12-09)"
   xml:space="preserve"
   xmlns:inkscape="http://www.inkscape.org/namespaces/inkscape"
   xmlns:sodipodi="http://sodipodi.sourceforge.net/DTD/sodipodi-0.dtd"
   xmlns="http://www.w3.org/2000/svg"
   xmlns:svg="http://www.w3.org/2000/svg"><defs
     id="defs16"><linearGradient
       id="linearGradient13265"
       inkscape:swatch="solid"><stop
         style="stop-color:#ff0000;stop-opacity:1;"
         offset="0"
         id="stop13263" /></linearGradient></defs><sodipodi:namedview
     id="namedview14"
     pagecolor="#000000"
     bordercolor="#000000"
     borderopacity="0.25"
     inkscape:showpageshadow="2"
     inkscape:pageopacity="0"
     inkscape:pagecheckerboard="0"
     inkscape:deskcolor="#d1d1d1"
     showgrid="false"
     inkscape:zoom="0.6713802"
     inkscape:cx="-83.410264"
     inkscape:cy="244.27292"
     inkscape:window-width="1280"
     inkscape:window-height="729"
     inkscape:window-x="-8"
     inkscape:window-y="-8"
     inkscape:window-maximized="1"
     inkscape:current-layer="svg12" /><!--! Font Awesome Pro 6.4.0 by @fontawesome - https://fontawesome.com License - https://fontawesome.com/license (Commercial License) Copyright 2023 Fonticons, Inc. --><path
     d="M320 464c8.8 0 16-7.2 16-16V160H256c-17.7 0-32-14.3-32-32V48H64c-8.8 0-16 7.2-16 16V448c0 8.8 7.2 16 16 16H320zM0 64C0 28.7 28.7 0 64 0H229.5c17 0 33.3 6.7 45.3 18.7l90.5 90.5c12 12 18.7 28.3 18.7 45.3V448c0 35.3-28.7 64-64 64H64c-35.3 0-64-28.7-64-64V64z"
     id="path10"
     style="fill:#ffffff" /><g
     style="fill:#3030ff;fill-opacity:1"
     id="g4292"
     transform="matrix(11.959452,0,0,10.825802,52.02134,182.69597)"><path
       fill-rule="evenodd"
       clip-rule="evenodd"
       d="M 5,3 C 3.34315,3 2,4.34315 2,6 v 12 c 0,1.6569 1.34315,3 3,3 h 14 c 1.6569,0 3,-1.3431 3,-3 V 6 C 22,4.34315 20.6569,3 19,3 Z M 4,6 C 4,5.44772 4.44772,5 5,5 h 14 c 0.5523,0 1,0.44772 1,1 V 7 H 4 Z m 0,3 v 9 c 0,0.5523 0.44772,1 1,1 h 14 c 0.5523,0 1,-0.4477 1,-1 V 9 Z"
       fill="#000000"
       id="path4283"
       style="fill:#3030ff;fill-opacity:1" /></g></svg>
