<svg viewBox="0 0 384 512" version="1.1" id="svg12" xmlns="http://www.w3.org/2000/svg">
  <defs id="defs16"></defs>
  <path d="M320 464c8.8 0 16-7.2 16-16V160H256c-17.7 0-32-14.3-32-32V48H64c-8.8 0-16 7.2-16 16V448c0 8.8 7.2 16 16 16H320zM0 64C0 28.7 28.7 0 64 0H229.5c17 0 33.3 6.7 45.3 18.7l90.5 90.5c12 12 18.7 28.3 18.7 45.3V448c0 35.3-28.7 64-64 64H64c-35.3 0-64-28.7-64-64V64z" id="path10" style="fill:#ffffff"></path>
  <path d="M 150.132 209.553 L 125.222 209.553 C 106.903 209.553 92.346 220.831 92.346 242.162 L 71.587 242.162 C 64.685 242.162 59.132 248.629 59.132 256.665 C 59.132 264.702 64.685 271.168 71.587 271.168 L 92.346 271.168 L 92.346 305.008 L 71.587 305.008 C 64.685 305.008 59.132 311.474 59.132 319.511 C 59.132 327.547 64.685 334.014 71.587 334.014 L 92.346 334.014 L 92.346 367.854 L 71.587 367.854 C 64.685 367.854 59.132 374.319 59.132 382.356 C 59.132 390.394 64.685 396.859 71.587 396.859 L 92.346 396.859 C 92.346 418.191 107.577 429.132 125.896 429.132 L 150.806 429.132 L 179.868 429.132 L 204.777 429.132 L 233.839 429.132 L 258.75 429.132 C 277.068 429.132 291.626 418.191 291.626 396.859 L 312.384 396.859 C 319.286 396.859 324.839 390.394 324.839 382.356 C 324.839 374.319 319.286 367.854 312.384 367.854 L 291.626 367.854 L 291.626 334.014 L 312.384 334.014 C 319.286 334.014 324.839 327.547 324.839 319.511 C 324.839 311.474 319.286 305.008 312.384 305.008 L 291.626 305.008 L 291.626 271.168 L 312.384 271.168 C 319.286 271.168 324.839 264.702 324.839 256.665 C 324.839 248.629 319.286 242.162 312.384 242.162 L 291.626 242.162 C 291.626 220.831 276.394 209.553 258.076 209.553 L 233.165 209.553 L 204.103 209.553 L 179.194 209.553 L 150.132 209.553 Z M 142.166 242.162 L 241.806 242.162 C 250.991 242.162 258.413 250.803 258.413 261.499 L 258.413 377.522 C 258.413 388.218 250.991 396.859 241.806 396.859 L 142.166 396.859 C 132.98 396.859 125.559 388.218 125.559 377.522 L 125.559 261.499 C 125.559 250.803 132.98 242.162 142.166 242.162 Z M 241.806 261.499 L 142.166 261.499 L 142.166 377.522 L 241.806 377.522 L 241.806 261.499 Z" style="fill:#ffffff"></path>
</svg>