<?xml version="1.0" encoding="UTF-8" standalone="no"?>
<svg
   viewBox="0 0 384 512"
   version="1.1"
   id="svg12"
   sodipodi:docname="file-sprite.svg"
   inkscape:version="1.2.2 (732a01da63, 2022-12-09)"
   xml:space="preserve"
   xmlns:inkscape="http://www.inkscape.org/namespaces/inkscape"
   xmlns:sodipodi="http://sodipodi.sourceforge.net/DTD/sodipodi-0.dtd"
   xmlns="http://www.w3.org/2000/svg"
   xmlns:svg="http://www.w3.org/2000/svg"><defs
     id="defs16"><linearGradient
       id="linearGradient13265"
       inkscape:swatch="solid"><stop
         style="stop-color:#ff0000;stop-opacity:1;"
         offset="0"
         id="stop13263" /></linearGradient></defs><sodipodi:namedview
     id="namedview14"
     pagecolor="#000000"
     bordercolor="#000000"
     borderopacity="0.25"
     inkscape:showpageshadow="2"
     inkscape:pageopacity="0"
     inkscape:pagecheckerboard="0"
     inkscape:deskcolor="#d1d1d1"
     showgrid="false"
     inkscape:zoom="1.3427604"
     inkscape:cx="145.22323"
     inkscape:cy="253.20973"
     inkscape:window-width="1920"
     inkscape:window-height="1057"
     inkscape:window-x="1272"
     inkscape:window-y="-8"
     inkscape:window-maximized="1"
     inkscape:current-layer="svg12" /><!--! Font Awesome Pro 6.4.0 by @fontawesome - https://fontawesome.com License - https://fontawesome.com/license (Commercial License) Copyright 2023 Fonticons, Inc. --><path
     d="M320 464c8.8 0 16-7.2 16-16V160H256c-17.7 0-32-14.3-32-32V48H64c-8.8 0-16 7.2-16 16V448c0 8.8 7.2 16 16 16H320zM0 64C0 28.7 28.7 0 64 0H229.5c17 0 33.3 6.7 45.3 18.7l90.5 90.5c12 12 18.7 28.3 18.7 45.3V448c0 35.3-28.7 64-64 64H64c-35.3 0-64-28.7-64-64V64z"
     id="path10"
     style="fill:#ffffff" /><rect
     style="fill:#ff0000;fill-opacity:1;stroke:#00ff00;stroke-width:0.134548"
     id="rect1916"
     width="18.76309"
     height="18.76309"
     x="94.95945"
     y="398.26184" /><rect
     style="fill:#ff0000;stroke:#00ff00;stroke-width:0.134548"
     id="rect1916-0"
     width="18.76309"
     height="18.76309"
     x="114.95944"
     y="398.26187" /><rect
     style="fill:#ff0000;stroke:#00ff00;stroke-width:0.134548"
     id="rect1916-0-9"
     width="18.76309"
     height="18.76309"
     x="194.95944"
     y="398.26187" /><rect
     style="fill:#ff0000;fill-opacity:1;stroke:#00ff00;stroke-width:0.134548"
     id="rect1916-01"
     width="18.76309"
     height="18.76309"
     x="94.95945"
     y="418.26187" /><rect
     style="fill:#ff0000;fill-opacity:1;stroke:#00ff00;stroke-width:0.134548"
     id="rect1916-0-8"
     width="18.76309"
     height="18.76309"
     x="94.95945"
     y="378.26184" /><rect
     style="fill:#ff0000;fill-opacity:1;stroke:#00ff00;stroke-width:0.134548"
     id="rect1916-0-9-8"
     width="18.76309"
     height="18.76309"
     x="114.95944"
     y="378.26184" /><rect
     style="fill:#ff0000;fill-opacity:1;stroke:#00ff00;stroke-width:0.134548"
     id="rect1916-0-9-5-9"
     width="18.76309"
     height="18.76309"
     x="154.95944"
     y="398.26187" /><rect
     style="fill:#ff0000;fill-opacity:1;stroke:#00ff00;stroke-width:0.134548"
     id="rect1916-0-7-7"
     width="18.76309"
     height="18.76309"
     x="134.95944"
     y="378.26184" /><rect
     style="fill:#ff0000;fill-opacity:1;stroke:#00ff00;stroke-width:0.134548"
     id="rect1916-0-9-8-1"
     width="18.76309"
     height="18.76309"
     x="114.95944"
     y="318.26184" /><rect
     style="fill:#ff0000;fill-opacity:1;stroke:#00ff00;stroke-width:0.134548"
     id="rect1916-0-9-5-9-3"
     width="18.76309"
     height="18.76309"
     x="94.95945"
     y="298.26187" /><rect
     style="fill:#ff0000;fill-opacity:1;stroke:#00ff00;stroke-width:0.134548"
     id="rect1916-0-7-7-2"
     width="18.76309"
     height="18.76309"
     x="134.95941"
     y="318.26184" /><rect
     style="fill:#ff0000;fill-opacity:1;stroke:#00ff00;stroke-width:0.134548"
     id="rect1916-0-9-8-7"
     width="18.76309"
     height="18.76309"
     x="114.95944"
     y="358.26184" /><rect
     style="fill:#ff0000;fill-opacity:1;stroke:#00ff00;stroke-width:0.134548"
     id="rect1916-0-9-5-9-2"
     width="18.76309"
     height="18.76309"
     x="154.95941"
     y="358.26184" /><rect
     style="fill:#ff0000;fill-opacity:1;stroke:#00ff00;stroke-width:0.134548"
     id="rect1916-0-7-7-7"
     width="18.76309"
     height="18.76309"
     x="134.95941"
     y="358.26184" /><rect
     style="fill:#ff0000;fill-opacity:1;stroke:#00ff00;stroke-width:0.134548"
     id="rect1916-0-9-5-9-2-8"
     width="18.76309"
     height="18.76309"
     x="154.95944"
     y="338.26184" /><rect
     style="fill:#ff0000;fill-opacity:1;stroke:#00ff00;stroke-width:0.134548"
     id="rect1916-0-7-7-7-9"
     width="18.76309"
     height="18.76309"
     x="134.95944"
     y="338.26184" /><rect
     style="fill:#ff0000;fill-opacity:1;stroke:#00ff00;stroke-width:0.134548"
     id="rect1916-0-9-0"
     width="18.76309"
     height="18.76309"
     x="74.959442"
     y="338.26184" /><rect
     style="fill:#ff0000;fill-opacity:1;stroke:#00ff00;stroke-width:0.134548"
     id="rect1916-5"
     width="18.76309"
     height="18.76309"
     x="94.95945"
     y="338.26184" /><rect
     style="fill:#ff0000;fill-opacity:1;stroke:#00ff00;stroke-width:0.134548"
     id="rect1916-0-9-0-5"
     width="18.76309"
     height="18.76309"
     x="114.95944"
     y="418.26184" /><rect
     style="fill:#ff0000;fill-opacity:1;stroke:#00ff00;stroke-width:0.134548"
     id="rect1916-5-6"
     width="18.76309"
     height="18.76309"
     x="134.95944"
     y="418.26184" /><rect
     style="fill:#ff0000;fill-opacity:1;stroke:#00ff00;stroke-width:0.134548"
     id="rect1916-5-6-1"
     width="18.76309"
     height="18.76309"
     x="114.95944"
     y="298.26187" /><rect
     style="fill:#ff0000;fill-opacity:1;stroke:#00ff00;stroke-width:0.134548"
     id="rect1916-5-6-1-0"
     width="18.76309"
     height="18.76309"
     x="194.95944"
     y="198.26187" /><rect
     style="fill:#ff0000;fill-opacity:1;stroke:#00ff00;stroke-width:0.134548"
     id="rect1916-0-3"
     width="18.76309"
     height="18.76309"
     x="94.95945"
     y="318.26184" /><rect
     style="fill:#ff0000;fill-opacity:1;stroke:#00ff00;stroke-width:0.134548"
     id="rect1916-7"
     width="18.76309"
     height="18.76309"
     x="-93.722527"
     y="318.26187"
     transform="scale(-1,1)" /><rect
     style="fill:#ff0000;fill-opacity:1;stroke:#00ff00;stroke-width:0.134548"
     id="rect1916-0-6"
     width="18.76309"
     height="18.76309"
     x="-133.72253"
     y="338.26187"
     transform="scale(-1,1)" /><rect
     style="fill:#ff0000;fill-opacity:1;stroke:#00ff00;stroke-width:0.134548"
     id="rect1916-0-9-53"
     width="18.76309"
     height="18.76309"
     x="-193.72253"
     y="298.26187"
     transform="scale(-1,1)" /><rect
     style="fill:#ff0000;fill-opacity:1;stroke:#00ff00;stroke-width:0.134548"
     id="rect1916-01-2"
     width="18.76309"
     height="18.76309"
     x="-233.72249"
     y="418.26187"
     transform="scale(-1,1)" /><rect
     style="fill:#ff0000;fill-opacity:1;stroke:#00ff00;stroke-width:0.134548"
     id="rect1916-0-8-5"
     width="18.76309"
     height="18.76309"
     x="-193.72253"
     y="398.26187"
     transform="scale(-1,1)" /><rect
     style="fill:#ff0000;fill-opacity:1;stroke:#00ff00;stroke-width:0.134548"
     id="rect1916-0-9-8-0"
     width="18.76309"
     height="18.76309"
     x="-213.7225"
     y="378.26181"
     transform="scale(-1,1)" /><rect
     style="fill:#ff0000;fill-opacity:1;stroke:#00ff00;stroke-width:0.134548"
     id="rect1916-0-7-7-27"
     width="18.76309"
     height="18.76309"
     x="-193.72253"
     y="378.26181"
     transform="scale(-1,1)" /><rect
     style="fill:#ff0000;fill-opacity:1;stroke:#00ff00;stroke-width:0.134548"
     id="rect1916-0-9-8-1-2"
     width="18.76309"
     height="18.76309"
     x="-213.7225"
     y="318.26181"
     transform="scale(-1,1)" /><rect
     style="fill:#ff0000;fill-opacity:1;stroke:#00ff00;stroke-width:0.134548"
     id="rect1916-0-7-7-2-6"
     width="18.76309"
     height="18.76309"
     x="-193.72253"
     y="318.26181"
     transform="scale(-1,1)" /><rect
     style="fill:#ff0000;fill-opacity:1;stroke:#00ff00;stroke-width:0.134548"
     id="rect1916-0-7-7-7-3"
     width="18.76309"
     height="18.76309"
     x="-193.72253"
     y="358.26181"
     transform="scale(-1,1)" /><rect
     style="fill:#ff0000;fill-opacity:1;stroke:#00ff00;stroke-width:0.134548"
     id="rect1916-0-7-7-7-9-4"
     width="18.76309"
     height="18.76309"
     x="-213.72253"
     y="338.26187"
     transform="scale(-1,1)" /><rect
     style="fill:#ff0000;fill-opacity:1;stroke:#00ff00;stroke-width:0.134548"
     id="rect1916-0-9-0-1"
     width="18.76309"
     height="18.76309"
     x="-173.72253"
     y="298.26187"
     transform="scale(-1,1)" /><rect
     style="fill:#ff0000;fill-opacity:1;stroke:#00ff00;stroke-width:0.134548"
     id="rect1916-5-2"
     width="18.76309"
     height="18.76309"
     x="-233.72249"
     y="338.26181"
     transform="scale(-1,1)" /><rect
     style="fill:#ff0000;fill-opacity:1;stroke:#00ff00;stroke-width:0.134548"
     id="rect1916-0-9-0-5-2"
     width="18.76309"
     height="18.76309"
     x="-213.7225"
     y="418.26181"
     transform="scale(-1,1)" /><rect
     style="fill:#ff0000;fill-opacity:1;stroke:#00ff00;stroke-width:0.134548"
     id="rect1916-5-6-4"
     width="18.76309"
     height="18.76309"
     x="-193.72253"
     y="418.26181"
     transform="scale(-1,1)" /><rect
     style="fill:#ff0000;fill-opacity:1;stroke:#00ff00;stroke-width:0.134548"
     id="rect1916-5-6-1-2"
     width="18.76309"
     height="18.76309"
     x="-213.7225"
     y="298.26187"
     transform="scale(-1,1)" /><rect
     style="fill:#ff0000;fill-opacity:1;stroke:#00ff00;stroke-width:0.134548"
     id="rect1916-5-6-1-0-6"
     width="18.76309"
     height="18.76309"
     x="-153.72253"
     y="298.26187"
     transform="scale(-1,1)" /><rect
     style="fill:#ff0000;fill-opacity:1;stroke:#00ff00;stroke-width:0.134548"
     id="rect1916-0-9-5-9-3-5"
     width="18.76309"
     height="18.76309"
     x="94.95945"
     y="278.2619" /><rect
     style="fill:#ff0000;fill-opacity:1;stroke:#00ff00;stroke-width:0.134548"
     id="rect1916-5-6-1-5"
     width="18.76309"
     height="18.76309"
     x="114.95944"
     y="278.26187" /><rect
     style="fill:#ff0000;fill-opacity:1;stroke:#00ff00;stroke-width:0.134548"
     id="rect1916-0-9-53-6"
     width="18.76309"
     height="18.76309"
     x="-193.72252"
     y="278.2619"
     transform="scale(-1,1)" /><rect
     style="fill:#ff0000;fill-opacity:1;stroke:#00ff00;stroke-width:0.134548"
     id="rect1916-0-9-0-1-3"
     width="18.76309"
     height="18.76309"
     x="-173.72253"
     y="278.2619"
     transform="scale(-1,1)" /><rect
     style="fill:#ff0000;fill-opacity:1;stroke:#00ff00;stroke-width:0.134548"
     id="rect1916-5-6-1-2-8"
     width="18.76309"
     height="18.76309"
     x="-213.72249"
     y="278.26187"
     transform="scale(-1,1)" /><rect
     style="fill:#ff0000;fill-opacity:1;stroke:#00ff00;stroke-width:0.134548"
     id="rect1916-5-6-1-0-6-9"
     width="18.76309"
     height="18.76309"
     x="-153.72253"
     y="278.2619"
     transform="scale(-1,1)" /><rect
     style="fill:#ff0000;fill-opacity:1;stroke:#00ff00;stroke-width:0.134548"
     id="rect1916-0-3-5"
     width="18.76309"
     height="18.76309"
     x="-233.72249"
     y="318.26181"
     transform="scale(-1,1)" /><rect
     style="fill:#ff0000;fill-opacity:1;stroke:#00ff00;stroke-width:0.134548"
     id="rect1916-0-9-5-9-3-57"
     width="18.76309"
     height="18.76309"
     x="134.95944"
     y="238.26187" /><rect
     style="fill:#ff0000;fill-opacity:1;stroke:#00ff00;stroke-width:0.134548"
     id="rect1916-5-6-1-3"
     width="18.76309"
     height="18.76309"
     x="114.95943"
     y="258.26187" /><rect
     style="fill:#ff0000;fill-opacity:1;stroke:#00ff00;stroke-width:0.134548"
     id="rect1916-0-9-53-8"
     width="18.76309"
     height="18.76309"
     x="-193.72253"
     y="258.2619"
     transform="scale(-1,1)" /><rect
     style="fill:#ff0000;fill-opacity:1;stroke:#00ff00;stroke-width:0.134548"
     id="rect1916-0-9-0-1-4"
     width="18.76309"
     height="18.76309"
     x="-173.72253"
     y="258.2619"
     transform="scale(-1,1)" /><rect
     style="fill:#ff0000;fill-opacity:1;stroke:#00ff00;stroke-width:0.134548"
     id="rect1916-5-6-1-2-82"
     width="18.76309"
     height="18.76309"
     x="-173.72253"
     y="238.26187"
     transform="scale(-1,1)" /><rect
     style="fill:#ff0000;fill-opacity:1;stroke:#00ff00;stroke-width:0.134548"
     id="rect1916-5-6-1-0-6-7"
     width="18.76309"
     height="18.76309"
     x="-153.72253"
     y="258.2619"
     transform="scale(-1,1)" /><rect
     style="fill:#ff0000;fill-opacity:1;stroke:#00ff00;stroke-width:0.134548"
     id="rect1916-5-6-1-3-0"
     width="18.76309"
     height="18.76309"
     x="114.95944"
     y="218.26187" /><rect
     style="fill:#ff0000;fill-opacity:1;stroke:#00ff00;stroke-width:0.134548"
     id="rect1916-0-9-53-8-2"
     width="18.76309"
     height="18.76309"
     x="-193.72255"
     y="218.26189"
     transform="scale(-1,1)" /><rect
     style="fill:#ff0000;fill-opacity:1;stroke:#00ff00;stroke-width:0.134548"
     id="rect1916-0-9-0-1-4-6"
     width="18.76309"
     height="18.76309"
     x="-173.72255"
     y="218.26189"
     transform="scale(-1,1)" /><rect
     style="fill:#ff0000;fill-opacity:1;stroke:#00ff00;stroke-width:0.134548"
     id="rect1916-5-6-1-0-6-7-0"
     width="18.76309"
     height="18.76309"
     x="-153.72255"
     y="218.26189"
     transform="scale(-1,1)" /><rect
     style="fill:#ff0000;fill-opacity:1;stroke:#00ff00;stroke-width:0.134548"
     id="rect1916-5-6-1-3-4"
     width="18.76309"
     height="18.76309"
     x="114.95944"
     y="198.26187" /><rect
     style="fill:#ff0000;fill-opacity:1;stroke:#00ff00;stroke-width:0.134548"
     id="rect1916-0-9-53-8-8"
     width="18.76309"
     height="18.76309"
     x="-193.72255"
     y="198.26189"
     transform="scale(-1,1)" /><rect
     style="fill:#ff0000;fill-opacity:1;stroke:#00ff00;stroke-width:0.134548"
     id="rect1916-0-9-0-1-4-8"
     width="18.76309"
     height="18.76309"
     x="-173.72255"
     y="198.26189"
     transform="scale(-1,1)" /><rect
     style="fill:#ff0000;fill-opacity:1;stroke:#00ff00;stroke-width:0.134548"
     id="rect1916-5-6-1-0-6-7-5"
     width="18.76309"
     height="18.76309"
     x="-153.72255"
     y="198.26189"
     transform="scale(-1,1)" /><rect
     style="fill:#ff0000;fill-opacity:1;stroke:#00ff00;stroke-width:0.134548"
     id="rect1916-5-6-1-0-0"
     width="18.76309"
     height="18.76309"
     x="194.95943"
     y="138.26187" /><rect
     style="fill:#ff0000;fill-opacity:1;stroke:#00ff00;stroke-width:0.134548"
     id="rect1916-5-6-1-3-4-3"
     width="18.76309"
     height="18.76309"
     x="114.95944"
     y="138.26187" /><rect
     style="fill:#ff0000;fill-opacity:1;stroke:#00ff00;stroke-width:0.134548"
     id="rect1916-0-9-53-8-8-92"
     width="18.76309"
     height="18.76309"
     x="-193.72255"
     y="138.26189"
     transform="scale(-1,1)" /><rect
     style="fill:#ff0000;fill-opacity:1;stroke:#00ff00;stroke-width:0.134548"
     id="rect1916-5-6-1-0-0-5"
     width="18.76309"
     height="18.76309"
     x="194.95941"
     y="118.26188" /><rect
     style="fill:#ff0000;fill-opacity:1;stroke:#00ff00;stroke-width:0.134548"
     id="rect1916-0-9-53-8-8-92-8"
     width="18.76309"
     height="18.76309"
     x="-193.72253"
     y="118.26189"
     transform="scale(-1,1)" /><rect
     style="fill:#ff0000;fill-opacity:1;stroke:#00ff00;stroke-width:0.134548"
     id="rect1916-0-9-0-1-4-8-99"
     width="18.76309"
     height="18.76309"
     x="-173.72255"
     y="138.26189"
     transform="scale(-1,1)" /><rect
     style="fill:#ff0000;fill-opacity:1;stroke:#00ff00;stroke-width:0.134548"
     id="rect1916-5-6-1-0-6-7-5-0"
     width="18.76309"
     height="18.76309"
     x="-153.72255"
     y="138.26189"
     transform="scale(-1,1)" /><rect
     style="fill:#ff0000;fill-opacity:1;stroke:#00ff00;stroke-width:0.134548"
     id="rect1916-5-6-1-0-62"
     width="18.76309"
     height="18.76309"
     x="174.95944"
     y="158.26189" /><rect
     style="fill:#ff0000;fill-opacity:1;stroke:#00ff00;stroke-width:0.134548"
     id="rect1916-5-6-1-3-4-0"
     width="18.76309"
     height="18.76309"
     x="94.95945"
     y="158.26189" /><rect
     style="fill:#ff0000;fill-opacity:1;stroke:#00ff00;stroke-width:0.134548"
     id="rect1916-0-9-53-8-8-9"
     width="18.76309"
     height="18.76309"
     x="-173.72255"
     y="158.26189"
     transform="scale(-1,1)" /><rect
     style="fill:#ff0000;fill-opacity:1;stroke:#00ff00;stroke-width:0.134548"
     id="rect1916-0-9-0-1-4-8-9"
     width="18.76309"
     height="18.76309"
     x="-153.72255"
     y="158.26189"
     transform="scale(-1,1)" /><rect
     style="fill:#ff0000;fill-opacity:1;stroke:#00ff00;stroke-width:0.134548"
     id="rect1916-5-6-1-0-6-7-5-6"
     width="18.76309"
     height="18.76309"
     x="-133.72255"
     y="158.26189"
     transform="scale(-1,1)" /><rect
     style="fill:#ff0000;fill-opacity:1;stroke:#00ff00;stroke-width:0.134548"
     id="rect1916-5-6-1-3-4-4"
     width="18.76309"
     height="18.76309"
     x="114.95944"
     y="178.26187" /><rect
     style="fill:#ff0000;fill-opacity:1;stroke:#00ff00;stroke-width:0.134548"
     id="rect1916-0-9-53-8-8-1"
     width="18.76309"
     height="18.76309"
     x="-193.72255"
     y="178.26189"
     transform="scale(-1,1)" /><rect
     style="fill:#ff0000;fill-opacity:1;stroke:#00ff00;stroke-width:0.134548"
     id="rect1916-5-6-1-0-6-7-5-2"
     width="18.76309"
     height="18.76309"
     x="-153.72255"
     y="178.26189"
     transform="scale(-1,1)" /></svg>
