<?xml version="1.0" encoding="UTF-8" standalone="no"?>
<svg
   viewBox="0 0 384 512"
   version="1.1"
   id="svg12"
   sodipodi:docname="file-text.svg"
   inkscape:version="1.2.2 (732a01da63, 2022-12-09)"
   xmlns:inkscape="http://www.inkscape.org/namespaces/inkscape"
   xmlns:sodipodi="http://sodipodi.sourceforge.net/DTD/sodipodi-0.dtd"
   xmlns="http://www.w3.org/2000/svg"
   xmlns:svg="http://www.w3.org/2000/svg">
  <defs
     id="defs16" />
  <sodipodi:namedview
     id="namedview14"
     pagecolor="#000000"
     bordercolor="#000000"
     borderopacity="0.25"
     inkscape:showpageshadow="2"
     inkscape:pageopacity="0"
     inkscape:pagecheckerboard="true"
     inkscape:deskcolor="#d1d1d1"
     showgrid="false"
     inkscape:zoom="1.0029297"
     inkscape:cx="32.405063"
     inkscape:cy="378.39143"
     inkscape:window-width="1841"
     inkscape:window-height="1270"
     inkscape:window-x="1205"
     inkscape:window-y="302"
     inkscape:window-maximized="0"
     inkscape:current-layer="svg12" />
  <!--! Font Awesome Pro 6.4.0 by @fontawesome - https://fontawesome.com License - https://fontawesome.com/license (Commercial License) Copyright 2023 Fonticons, Inc. -->
  <path
     d="M320 464c8.8 0 16-7.2 16-16V160H256c-17.7 0-32-14.3-32-32V48H64c-8.8 0-16 7.2-16 16V448c0 8.8 7.2 16 16 16H320zM0 64C0 28.7 28.7 0 64 0H229.5c17 0 33.3 6.7 45.3 18.7l90.5 90.5c12 12 18.7 28.3 18.7 45.3V448c0 35.3-28.7 64-64 64H64c-35.3 0-64-28.7-64-64V64z"
     id="path10"
     style="fill:#ffffff" />
  <g
     aria-label="TEXT"
     transform="scale(0.99478256,1.0052448)"
     id="text176"
     style="font-size:73.8973px;fill:#ffffff;stroke-width:6.15812">
    <path
       d="m 139.09789,285.86415 h -16.77844 v 43.33528 H 108.46371 V 285.86415 H 91.685269 v -10.39181 h 47.412621 z"
       style="font-weight:bold;font-family:Verdana;-inkscape-font-specification:'Verdana Bold';text-align:center;text-anchor:middle"
       id="path166" />
    <path
       d="m 186.29402,329.19943 h -38.86103 v -53.72709 h 38.86103 v 10.39181 h -25.07745 v 9.27325 h 23.27332 v 10.3918 h -23.27332 v 13.27842 h 25.07745 z"
       style="font-weight:bold;font-family:Verdana;-inkscape-font-specification:'Verdana Bold';text-align:center;text-anchor:middle"
       id="path168" />
    <path
       d="m 246.62424,329.19943 h -16.02071 l -11.58253,-17.6805 -11.79903,17.6805 h -15.29905 l 19.05164,-27.062 -18.65474,-26.66509 h 15.98463 l 11.18562,16.74236 11.51037,-16.74236 h 15.33514 l -18.76299,26.12385 z"
       style="font-weight:bold;font-family:Verdana;-inkscape-font-specification:'Verdana Bold';text-align:center;text-anchor:middle"
       id="path170" />
    <path
       d="m 296.38223,285.86415 h -16.77844 v 43.33528 H 265.74804 V 285.86415 H 248.9696 v -10.39181 h 47.41263 z"
       style="font-weight:bold;font-family:Verdana;-inkscape-font-specification:'Verdana Bold';text-align:center;text-anchor:middle"
       id="path172" />
  </g>
</svg>
