<?xml version="1.0" encoding="UTF-8" standalone="no"?>
<svg
   viewBox="0 0 384 512"
   version="1.1"
   id="svg12"
   sodipodi:docname="file-udg.svg"
   inkscape:version="1.2.2 (732a01da63, 2022-12-09)"
   xmlns:inkscape="http://www.inkscape.org/namespaces/inkscape"
   xmlns:sodipodi="http://sodipodi.sourceforge.net/DTD/sodipodi-0.dtd"
   xmlns="http://www.w3.org/2000/svg"
   xmlns:svg="http://www.w3.org/2000/svg">
  <defs
     id="defs16" />
  <sodipodi:namedview
     id="namedview14"
     pagecolor="#000000"
     bordercolor="#000000"
     borderopacity="0.25"
     inkscape:showpageshadow="2"
     inkscape:pageopacity="0"
     inkscape:pagecheckerboard="0"
     inkscape:deskcolor="#d1d1d1"
     showgrid="false"
     inkscape:zoom="1.4183568"
     inkscape:cx="183.66324"
     inkscape:cy="252.40475"
     inkscape:window-width="1920"
     inkscape:window-height="1057"
     inkscape:window-x="1272"
     inkscape:window-y="-8"
     inkscape:window-maximized="1"
     inkscape:current-layer="svg12" />
  <!--! Font Awesome Pro 6.4.0 by @fontawesome - https://fontawesome.com License - https://fontawesome.com/license (Commercial License) Copyright 2023 Fonticons, Inc. -->
  <path
     d="M320 464c8.8 0 16-7.2 16-16V160H256c-17.7 0-32-14.3-32-32V48H64c-8.8 0-16 7.2-16 16V448c0 8.8 7.2 16 16 16H320zM0 64C0 28.7 28.7 0 64 0H229.5c17 0 33.3 6.7 45.3 18.7l90.5 90.5c12 12 18.7 28.3 18.7 45.3V448c0 35.3-28.7 64-64 64H64c-35.3 0-64-28.7-64-64V64z"
     id="path10"
     style="fill:#ffffff" />
  <rect
     style="fill:#00ff00;stroke:#00ff00;stroke-width:0.134548"
     id="rect1916"
     width="18.76309"
     height="18.76309"
     x="76.923553"
     y="356.41263" />
  <rect
     style="fill:#00ff00;stroke:#00ff00;stroke-width:0.134548"
     id="rect1916-0"
     width="18.76309"
     height="18.76309"
     x="76.923553"
     y="336.41263" />
  <rect
     style="fill:#00ff00;stroke:#00ff00;stroke-width:0.134548"
     id="rect1916-0-9"
     width="18.76309"
     height="18.76309"
     x="76.923553"
     y="316.41263" />
  <rect
     style="fill:#00ff00;stroke:#00ff00;stroke-width:0.134548"
     id="rect1916-01"
     width="18.76309"
     height="18.76309"
     x="116.92355"
     y="356.41263" />
  <rect
     style="fill:#00ff00;stroke:#00ff00;stroke-width:0.134548"
     id="rect1916-0-8"
     width="18.76309"
     height="18.76309"
     x="116.92355"
     y="336.41263" />
  <rect
     style="fill:#00ff00;stroke:#00ff00;stroke-width:0.134548"
     id="rect1916-0-9-5"
     width="18.76309"
     height="18.76309"
     x="116.92355"
     y="316.41263" />
  <rect
     style="fill:#00ff00;stroke:#00ff00;stroke-width:0.134548"
     id="rect1916-0-7"
     width="18.76309"
     height="18.76309"
     x="96.923553"
     y="316.41263" />
  <rect
     style="fill:#00ff00;stroke:#00ff00;stroke-width:0.134548"
     id="rect1916-0-9-8"
     width="18.76309"
     height="18.76309"
     x="136.92357"
     y="336.41263" />
  <rect
     style="fill:#00ff00;stroke:#00ff00;stroke-width:0.134548"
     id="rect1916-0-9-5-9"
     width="18.76309"
     height="18.76309"
     x="176.92355"
     y="336.41263" />
  <rect
     style="fill:#00ff00;stroke:#00ff00;stroke-width:0.134548"
     id="rect1916-0-7-7"
     width="18.76309"
     height="18.76309"
     x="156.92355"
     y="336.41263" />
  <rect
     style="fill:#00ff00;stroke:#00ff00;stroke-width:0.134548"
     id="rect1916-0-9-8-1"
     width="18.76309"
     height="18.76309"
     x="136.92357"
     y="276.41263" />
  <rect
     style="fill:#00ff00;stroke:#00ff00;stroke-width:0.134548"
     id="rect1916-0-9-5-9-3"
     width="18.76309"
     height="18.76309"
     x="176.92354"
     y="276.41263" />
  <rect
     style="fill:#00ff00;stroke:#00ff00;stroke-width:0.134548"
     id="rect1916-0-7-7-2"
     width="18.76309"
     height="18.76309"
     x="156.92354"
     y="276.41263" />
  <rect
     style="fill:#00ff00;stroke:#00ff00;stroke-width:0.134548"
     id="rect1916-0-9-8-7"
     width="18.76309"
     height="18.76309"
     x="136.92357"
     y="316.41263" />
  <rect
     style="fill:#00ff00;stroke:#00ff00;stroke-width:0.134548"
     id="rect1916-0-9-5-9-2"
     width="18.76309"
     height="18.76309"
     x="176.92354"
     y="316.41263" />
  <rect
     style="fill:#00ff00;stroke:#00ff00;stroke-width:0.134548"
     id="rect1916-0-7-7-7"
     width="18.76309"
     height="18.76309"
     x="156.92354"
     y="316.41263" />
  <rect
     style="fill:#00ff00;stroke:#00ff00;stroke-width:0.134548"
     id="rect1916-0-9-5-9-2-8"
     width="18.76309"
     height="18.76309"
     x="176.92355"
     y="296.41263" />
  <rect
     style="fill:#00ff00;stroke:#00ff00;stroke-width:0.134548"
     id="rect1916-0-7-7-7-9"
     width="18.76309"
     height="18.76309"
     x="156.92355"
     y="296.41263" />
  <rect
     style="fill:#00ff00;stroke:#00ff00;stroke-width:0.134548"
     id="rect1916-0-9-0"
     width="18.76309"
     height="18.76309"
     x="96.923553"
     y="296.41263" />
  <rect
     style="fill:#00ff00;stroke:#00ff00;stroke-width:0.134548"
     id="rect1916-5"
     width="18.76309"
     height="18.76309"
     x="116.92355"
     y="296.41263" />
  <rect
     style="fill:#00ff00;stroke:#00ff00;stroke-width:0.134548"
     id="rect1916-0-9-0-5"
     width="18.76309"
     height="18.76309"
     x="136.92357"
     y="376.41263" />
  <rect
     style="fill:#00ff00;stroke:#00ff00;stroke-width:0.134548"
     id="rect1916-5-6"
     width="18.76309"
     height="18.76309"
     x="156.92355"
     y="376.41263" />
  <rect
     style="fill:#00ff00;stroke:#00ff00;stroke-width:0.134548"
     id="rect1916-5-6-1"
     width="18.76309"
     height="18.76309"
     x="136.92357"
     y="256.41266" />
  <rect
     style="fill:#00ff00;stroke:#00ff00;stroke-width:0.134548"
     id="rect1916-5-6-1-0"
     width="18.76309"
     height="18.76309"
     x="116.92355"
     y="236.41264" />
  <rect
     style="fill:#00ff00;stroke:#00ff00;stroke-width:0.134548"
     id="rect1916-0-3"
     width="18.76309"
     height="18.76309"
     x="116.92355"
     y="276.41263" />
  <rect
     style="fill:#00ff00;stroke:#00ff00;stroke-width:0.134548"
     id="rect1916-7"
     width="18.76309"
     height="18.76309"
     x="-295.68668"
     y="356.4126"
     transform="scale(-1,1)" />
  <rect
     style="fill:#00ff00;stroke:#00ff00;stroke-width:0.134548"
     id="rect1916-0-6"
     width="18.76309"
     height="18.76309"
     x="-295.68668"
     y="336.4126"
     transform="scale(-1,1)" />
  <rect
     style="fill:#00ff00;stroke:#00ff00;stroke-width:0.134548"
     id="rect1916-0-9-53"
     width="18.76309"
     height="18.76309"
     x="-295.68668"
     y="316.4126"
     transform="scale(-1,1)" />
  <rect
     style="fill:#00ff00;stroke:#00ff00;stroke-width:0.134548"
     id="rect1916-01-2"
     width="18.76309"
     height="18.76309"
     x="-255.68663"
     y="356.4126"
     transform="scale(-1,1)" />
  <rect
     style="fill:#00ff00;stroke:#00ff00;stroke-width:0.134548"
     id="rect1916-0-8-5"
     width="18.76309"
     height="18.76309"
     x="-255.68663"
     y="336.4126"
     transform="scale(-1,1)" />
  <rect
     style="fill:#00ff00;stroke:#00ff00;stroke-width:0.134548"
     id="rect1916-0-9-5-2"
     width="18.76309"
     height="18.76309"
     x="-255.68663"
     y="316.4126"
     transform="scale(-1,1)" />
  <rect
     style="fill:#00ff00;stroke:#00ff00;stroke-width:0.134548"
     id="rect1916-0-7-6"
     width="18.76309"
     height="18.76309"
     x="-275.68665"
     y="316.4126"
     transform="scale(-1,1)" />
  <rect
     style="fill:#00ff00;stroke:#00ff00;stroke-width:0.134548"
     id="rect1916-0-9-8-0"
     width="18.76309"
     height="18.76309"
     x="-235.68663"
     y="336.4126"
     transform="scale(-1,1)" />
  <rect
     style="fill:#00ff00;stroke:#00ff00;stroke-width:0.134548"
     id="rect1916-0-7-7-27"
     width="18.76309"
     height="18.76309"
     x="-215.68665"
     y="336.4126"
     transform="scale(-1,1)" />
  <rect
     style="fill:#00ff00;stroke:#00ff00;stroke-width:0.134548"
     id="rect1916-0-9-8-1-2"
     width="18.76309"
     height="18.76309"
     x="-235.68663"
     y="276.4126"
     transform="scale(-1,1)" />
  <rect
     style="fill:#00ff00;stroke:#00ff00;stroke-width:0.134548"
     id="rect1916-0-7-7-2-6"
     width="18.76309"
     height="18.76309"
     x="-215.68665"
     y="276.4126"
     transform="scale(-1,1)" />
  <rect
     style="fill:#00ff00;stroke:#00ff00;stroke-width:0.134548"
     id="rect1916-0-9-8-7-4"
     width="18.76309"
     height="18.76309"
     x="-235.68663"
     y="316.4126"
     transform="scale(-1,1)" />
  <rect
     style="fill:#00ff00;stroke:#00ff00;stroke-width:0.134548"
     id="rect1916-0-7-7-7-3"
     width="18.76309"
     height="18.76309"
     x="-215.68665"
     y="316.4126"
     transform="scale(-1,1)" />
  <rect
     style="fill:#00ff00;stroke:#00ff00;stroke-width:0.134548"
     id="rect1916-0-7-7-7-9-4"
     width="18.76309"
     height="18.76309"
     x="-215.68665"
     y="296.4126"
     transform="scale(-1,1)" />
  <rect
     style="fill:#00ff00;stroke:#00ff00;stroke-width:0.134548"
     id="rect1916-0-9-0-1"
     width="18.76309"
     height="18.76309"
     x="-275.68665"
     y="296.4126"
     transform="scale(-1,1)" />
  <rect
     style="fill:#00ff00;stroke:#00ff00;stroke-width:0.134548"
     id="rect1916-5-2"
     width="18.76309"
     height="18.76309"
     x="-255.68663"
     y="296.4126"
     transform="scale(-1,1)" />
  <rect
     style="fill:#00ff00;stroke:#00ff00;stroke-width:0.134548"
     id="rect1916-0-9-0-5-2"
     width="18.76309"
     height="18.76309"
     x="-235.68663"
     y="376.4126"
     transform="scale(-1,1)" />
  <rect
     style="fill:#00ff00;stroke:#00ff00;stroke-width:0.134548"
     id="rect1916-5-6-4"
     width="18.76309"
     height="18.76309"
     x="-215.68665"
     y="376.4126"
     transform="scale(-1,1)" />
  <rect
     style="fill:#00ff00;stroke:#00ff00;stroke-width:0.134548"
     id="rect1916-5-6-1-2"
     width="18.76309"
     height="18.76309"
     x="-235.68663"
     y="256.41266"
     transform="scale(-1,1)" />
  <rect
     style="fill:#00ff00;stroke:#00ff00;stroke-width:0.134548"
     id="rect1916-5-6-1-0-6"
     width="18.76309"
     height="18.76309"
     x="-255.68663"
     y="236.41264"
     transform="scale(-1,1)" />
  <rect
     style="fill:#00ff00;stroke:#00ff00;stroke-width:0.134548"
     id="rect1916-0-3-5"
     width="18.76309"
     height="18.76309"
     x="-255.68663"
     y="276.4126"
     transform="scale(-1,1)" />
</svg>
