<?xml version="1.0" encoding="UTF-8" standalone="no"?>
<svg
   viewBox="0 0 384 512"
   version="1.1"
   id="svg12"
   sodipodi:docname="file-zx-tape.svg"
   inkscape:version="1.2.2 (732a01da63, 2022-12-09)"
   xml:space="preserve"
   xmlns:inkscape="http://www.inkscape.org/namespaces/inkscape"
   xmlns:sodipodi="http://sodipodi.sourceforge.net/DTD/sodipodi-0.dtd"
   xmlns="http://www.w3.org/2000/svg"
   xmlns:svg="http://www.w3.org/2000/svg"><defs
     id="defs16" /><sodipodi:namedview
     id="namedview14"
     pagecolor="#000000"
     bordercolor="#000000"
     borderopacity="0.25"
     inkscape:showpageshadow="2"
     inkscape:pageopacity="0"
     inkscape:pagecheckerboard="0"
     inkscape:deskcolor="#d1d1d1"
     showgrid="false"
     inkscape:zoom="1.4183568"
     inkscape:cx="374.02436"
     inkscape:cy="333.83701"
     inkscape:window-width="1841"
     inkscape:window-height="1270"
     inkscape:window-x="951"
     inkscape:window-y="453"
     inkscape:window-maximized="0"
     inkscape:current-layer="svg12" /><!--! Font Awesome Pro 6.4.0 by @fontawesome - https://fontawesome.com License - https://fontawesome.com/license (Commercial License) Copyright 2023 Fonticons, Inc. --><path
     d="M320 464c8.8 0 16-7.2 16-16V160H256c-17.7 0-32-14.3-32-32V48H64c-8.8 0-16 7.2-16 16V448c0 8.8 7.2 16 16 16H320zM0 64C0 28.7 28.7 0 64 0H229.5c17 0 33.3 6.7 45.3 18.7l90.5 90.5c12 12 18.7 28.3 18.7 45.3V448c0 35.3-28.7 64-64 64H64c-35.3 0-64-28.7-64-64V64z"
     id="path10"
     style="fill:#ffffff" /><g
     style="clip-rule:evenodd;fill:#ffffff;fill-rule:evenodd;stroke-linejoin:round;stroke-miterlimit:2"
     id="g276"
     transform="matrix(8.3022126,0,0,7.9816534,58.230762,236.81981)"><path
       d="m 25.338,6 -1.559,5.285 c -0.126,0.425 -0.516,0.717 -0.96,0.717 H 8.681 c -0.444,0 -0.834,-0.292 -0.96,-0.717 L 6.162,6 H 5 C 4.204,6 3.441,6.316 2.879,6.879 2.316,7.441 2,8.204 2,9 c 0,3.462 0,10.533 0,13.995 0,0.796 0.316,1.559 0.879,2.122 0.562,0.562 1.325,0.878 2.121,0.878 h 22 c 0.796,0 1.559,-0.316 2.121,-0.878 C 29.684,24.554 30,23.791 30,22.995 V 9 C 30,8.204 29.684,7.441 29.121,6.879 28.559,6.316 27.796,6 27,6 Z m -6.756,14 -5.118,0.001 c 0.341,-0.588 0.536,-1.272 0.536,-2 0,-2.207 -1.792,-3.999 -3.999,-3.999 -2.207,0 -3.999,1.792 -3.999,3.999 0,2.185 1.757,3.964 3.934,3.998 0.022,0.002 0.043,0.003 0.065,0.003 L 22.045,22 c 2.207,0 3.999,-1.792 3.999,-3.999 0,-2.207 -1.792,-3.999 -3.999,-3.999 -2.207,0 -3.999,1.792 -3.999,3.999 0,0.728 0.195,1.411 0.536,1.999 z M 10.001,16.002 C 11.104,16.002 12,16.897 12,18.001 12,19.104 11.104,20 10.001,20 8.897,20 8.002,19.104 8.002,18.001 c 0,-1.104 0.895,-1.999 1.999,-1.999 z m 12.044,0 c 1.104,0 1.999,0.895 1.999,1.999 0,1.103 -0.895,1.999 -1.999,1.999 -1.103,0 -1.999,-0.896 -1.999,-1.999 0,-1.104 0.896,-1.999 1.999,-1.999 z M 23.252,6 H 8.248 l 1.18,4.002 c 0,0 12.644,0 12.644,0 z"
       id="path267"
       style="fill:#ffffff" /></g><path
     d="m 193.59099,262.13887 c -2.9563,3.05257 -7.75732,3.05257 -10.71361,0 L 145.0368,223.06602 c -2.95629,-3.05256 -2.95629,-8.00993 0,-11.0625 2.9563,-3.05256 7.75732,-3.05256 10.71361,0 l 32.4956,33.55381 32.49559,-33.52939 c 2.9563,-3.05256 7.75732,-3.05256 10.71361,0 2.9563,3.05257 2.9563,8.00994 0,11.06251 l -37.84057,39.07284 z m 37.84057,-85.96026 -37.84057,39.07284 c -2.9563,3.05257 -7.75732,3.05257 -10.71361,0 L 145.0368,176.17861 c -2.95629,-3.05257 -2.95629,-8.00994 0,-11.06251 2.9563,-3.05256 7.75732,-3.05256 10.71361,0 l 32.4956,33.55381 32.49559,-33.52938 c 2.9563,-3.05257 7.75732,-3.05257 10.71361,0 2.9563,3.05256 2.9563,8.00993 0,11.0625 z"
     id="path287"
     style="fill:#ffffff;stroke-width:0.240324" /></svg>
