<?xml version="1.0" encoding="utf-8"?>
<!-- Uploaded to: SVG Repo, www.svgrepo.com, Generator: SVG Repo Mixer Tools -->
<svg viewBox="0 0 18 18" xmlns="http://www.w3.org/2000/svg">
	<g transform="scale(0.35,0.35) translate(30,0)">

<path fill="none" id="Vector" d="M13 13L18 8M18 8L13 3M18 8H10.2002C9.08009 8 8.51962 8 8.0918 8.21799C7.71547 8.40973 7.40973 8.71547 7.21799 9.0918C7 9.51962 7 10.0801 7 11.2002V21.0002" stroke="#000000" stroke-width="2" stroke-linecap="round" stroke-linejoin="round"/>
</g>
<g transform="translate(0,1)">
<path d="M9.972 2.508a.5.5 0 0 0-.16-.556l-.178-.129a5.009 5.009 0 0 0-2.076-.783C6.215.862 4.504 1.229 2.84 3.133H1.786a.5.5 0 0 0-.354.147L.146 4.567a.5.5 0 0 0 0 .706l2.571 2.579a.5.5 0 0 0 .708 0l1.286-1.29a.5.5 0 0 0 .146-.353V5.57l8.387 8.873A.5.5 0 0 0 14 14.5l1.5-1.5a.5.5 0 0 0 .017-.689l-9.129-8.63c.747-.456 1.772-.839 3.112-.839a.5.5 0 0 0 .472-.334z"/>
</g>
</svg>