<?xml version="1.0" ?><!DOCTYPE svg  PUBLIC '-//W3C//DTD SVG 1.1//EN'  'http://www.w3.org/Graphics/SVG/1.1/DTD/svg11.dtd'><!-- Uploaded to: SVG Repo, www.svgrepo.com, Generator: SVG Repo Mixer Tools -->
<svg fill="#000000" viewBox="0 0 32 32" style="fill-rule:evenodd;clip-rule:evenodd;stroke-linejoin:round;stroke-miterlimit:2;" version="1.1" xml:space="preserve" xmlns="http://www.w3.org/2000/svg" xmlns:serif="http://www.serif.com/" xmlns:xlink="http://www.w3.org/1999/xlink"><path d="M25.338,6l-1.559,5.285c-0.126,0.425 -0.516,0.717 -0.96,0.717l-14.138,-0c-0.444,-0 -0.834,-0.292 -0.96,-0.717l-1.559,-5.285l-1.162,0c-0.796,0 -1.559,0.316 -2.121,0.879c-0.563,0.562 -0.879,1.325 -0.879,2.121c0,3.462 -0,10.533 0,13.995c-0,0.796 0.316,1.559 0.879,2.122c0.562,0.562 1.325,0.878 2.121,0.878l22,0c0.796,0 1.559,-0.316 2.121,-0.878c0.563,-0.563 0.879,-1.326 0.879,-2.122l-0,-13.995c0,-0.796 -0.316,-1.559 -0.879,-2.121c-0.562,-0.563 -1.325,-0.879 -2.121,-0.879l-1.662,-0Zm-6.756,14l-5.118,0.001c0.341,-0.588 0.536,-1.272 0.536,-2c0,-2.207 -1.792,-3.999 -3.999,-3.999c-2.207,-0 -3.999,1.792 -3.999,3.999c-0,2.185 1.757,3.964 3.934,3.998c0.022,0.002 0.043,0.003 0.065,0.003l12.044,-0.002c2.207,-0 3.999,-1.792 3.999,-3.999c0,-2.207 -1.792,-3.999 -3.999,-3.999c-2.207,-0 -3.999,1.792 -3.999,3.999c-0,0.728 0.195,1.411 0.536,1.999Zm-8.581,-3.998c1.103,-0 1.999,0.895 1.999,1.999c-0,1.103 -0.896,1.999 -1.999,1.999c-1.104,0 -1.999,-0.896 -1.999,-1.999c-0,-1.104 0.895,-1.999 1.999,-1.999Zm12.044,-0c1.104,-0 1.999,0.895 1.999,1.999c0,1.103 -0.895,1.999 -1.999,1.999c-1.103,0 -1.999,-0.896 -1.999,-1.999c-0,-1.104 0.896,-1.999 1.999,-1.999Zm1.207,-10.002l-15.004,-0l1.18,4.002c0,-0 12.644,-0 12.644,-0l1.18,-4.002Z"/></svg>