<?xml version="1.0" encoding="utf-8"?>
<svg viewBox="0 0 448 512" xmlns="http://www.w3.org/2000/svg">
  <path d="M 125.32 11.479 C 95.931 11.479 72.037 35.003 72.037 63.937 L 72.037 326.229 C 72.037 355.163 95.931 378.687 125.32 378.687 L 391.733 378.687 C 421.122 378.687 445.016 355.163 445.016 326.229 L 445.016 127.297 C 445.016 113.363 439.438 100.002 429.447 90.166 L 365.092 26.807 C 355.101 16.971 341.531 11.479 327.378 11.479 L 125.32 11.479 Z M 125.32 90.166 C 125.32 75.658 137.225 63.937 151.961 63.937 L 311.809 63.937 C 326.545 63.937 338.45 75.658 338.45 90.166 L 338.45 142.625 C 338.45 157.133 326.545 168.854 311.809 168.854 L 151.961 168.854 C 137.225 168.854 125.32 157.133 125.32 142.625 L 125.32 90.166 Z M 258.526 221.312 C 299.543 221.312 325.179 265.027 304.671 300 C 295.152 316.23 277.562 326.229 258.526 326.229 C 217.509 326.229 191.874 282.514 212.382 247.541 C 221.9 231.311 239.49 221.312 258.526 221.312 Z" style="fill: rgb(133, 133, 133);"/>
  <path d="M 56.215 130.678 C 26.826 130.678 2.932 154.202 2.932 183.136 L 2.932 445.428 C 2.932 474.362 26.826 497.886 56.215 497.886 L 322.628 497.886 C 352.017 497.886 375.911 474.362 375.911 445.428 L 375.911 246.496 C 375.911 232.562 370.333 219.201 360.342 209.365 L 295.987 146.006 C 285.996 136.17 272.426 130.678 258.273 130.678 L 56.215 130.678 Z M 56.215 209.365 C 56.215 194.857 68.12 183.136 82.856 183.136 L 242.704 183.136 C 257.44 183.136 269.345 194.857 269.345 209.365 L 269.345 261.824 C 269.345 276.332 257.44 288.053 242.704 288.053 L 82.856 288.053 C 68.12 288.053 56.215 276.332 56.215 261.824 L 56.215 209.365 Z M 189.421 340.511 C 230.438 340.511 256.074 384.226 235.566 419.199 C 226.047 435.429 208.457 445.428 189.421 445.428 C 148.404 445.428 122.769 401.713 143.277 366.74 C 152.795 350.51 170.385 340.511 189.421 340.511 Z" style=""/>
</svg>