<?xml version="1.0" encoding="utf-8"?>
<svg viewBox="0 0 576 512" xmlns="http://www.w3.org/2000/svg">
  <path d="M 64 128 L 64 96 L 128 96 L 128 416 L 96 416 C 78.3 416 64 430.3 64 448 C 64 465.7 78.3 480 96 480 L 224 480 C 241.7 480 256 465.7 256 448 C 256 430.3 241.7 416 224 416 L 192 416 L 192 96 L 256 96 L 256 128 C 256 145.7 270.3 160 288 160 C 305.7 160 320 145.7 320 128 L 320 80 C 320 53.5 298.5 32 272 32 L 160 32 L 48 32 C 21.5 32 0 53.5 0 80 L 0 128 C 0 145.7 14.3 160 32 160 C 49.7 160 64 145.7 64 128 Z M 502.6 41.4 C 490.1 28.9 469.8 28.9 457.3 41.4 L 393.3 105.4 C 384.1 114.6 381.4 128.3 386.4 140.3 C 391.4 152.3 403 160.1 416 160.1 L 448 160.1 L 448 299 L 512 299 L 512 160 L 544 160 C 556.9 160 568.6 152.2 573.6 140.2 C 578.6 128.2 575.8 114.5 566.7 105.3 L 502.7 41.3 L 502.6 41.4 Z"/>
</svg>