<?xml version="1.0" encoding="utf-8"?>
<svg viewBox="0 0 576 512" xmlns="http://www.w3.org/2000/svg">
  <path d="M 64 128 L 64 96 L 128 96 L 128 416 L 96 416 C 78.3 416 64 430.3 64 448 C 64 465.7 78.3 480 96 480 L 224 480 C 241.7 480 256 465.7 256 448 C 256 430.3 241.7 416 224 416 L 192 416 L 192 96 L 256 96 L 256 128 C 256 145.7 270.3 160 288 160 C 305.7 160 320 145.7 320 128 L 320 80 C 320 53.5 298.5 32 272 32 L 160 32 L 48 32 C 21.5 32 0 53.5 0 80 L 0 128 C 0 145.7 14.3 160 32 160 C 49.7 160 64 145.7 64 128 Z M 512 200 L 448 200.1 L 448 352 L 416 352 C 403.1 352 391.4 359.8 386.4 371.8 C 381.4 383.8 384.2 397.5 393.3 406.7 L 457.3 470.7 C 469.8 483.2 490.1 483.2 502.6 470.7 L 566.6 406.7 C 575.8 397.5 578.5 383.8 573.5 371.8 C 568.5 359.8 556.9 352 543.9 352 L 512 352 L 512 200 Z" transform="matrix(0.9999999999999999, 0, 0, 0.9999999999999999, 0, 0)"/>
</svg>