<svg fill="#000000" version="1.1" id="Capa_1" xmlns="http://www.w3.org/2000/svg" xmlns:xlink="http://www.w3.org/1999/xlink" viewBox="0 0 29.961 29.961" xml:space="preserve"><g id="SVGRepo_bgCarrier" stroke-width="0"></g><g id="SVGRepo_tracerCarrier" stroke-linecap="round" stroke-linejoin="round"></g><g id="SVGRepo_iconCarrier"> <g> <g> <path d="M28.234,0.281C28.069,0.102,27.837,0,27.593,0h-0.015c-2.07,1.103-6.92,1.879-12.598,1.879S4.453,1.103,2.382,0H2.368 c-0.243,0-0.476,0.102-0.64,0.281C1.563,0.46,1.482,0.699,1.502,0.942l1.545,18.227c0.617,6.127,5.775,10.792,11.933,10.792 c6.159,0,11.316-4.665,11.933-10.792l1.545-18.227C28.48,0.699,28.398,0.46,28.234,0.281z M6.797,10.808 c0.188-0.881,1.609-1.325,3.175-0.991c1.566,0.333,2.684,1.318,2.496,2.199c-0.188,0.881-1.609,1.324-3.175,0.991 S6.609,11.689,6.797,10.808z M20.342,20.531c-0.716,2.281-2.843,3.938-5.361,3.938s-4.645-1.656-5.361-3.938 c-0.068-0.217-0.029-0.453,0.105-0.637c0.134-0.183,0.347-0.29,0.574-0.29h9.363c0.228,0,0.439,0.107,0.574,0.29 C20.371,20.078,20.41,20.314,20.342,20.531z M20.67,13.007c-1.564,0.333-2.987-0.11-3.175-0.991 c-0.188-0.881,0.93-1.866,2.496-2.199c1.565-0.333,2.988,0.11,3.175,0.991C23.354,11.689,22.236,12.674,20.67,13.007z"></path> </g> </g> </g></svg>