<?xml version="1.0" encoding="UTF-8" standalone="no"?>
<!-- Created with Inkscape (http://www.inkscape.org/) -->

<svg
   width="512"
   height="512"
   viewBox="0 0 135.46667 135.46667"
   version="1.1"
   id="svg5"
   inkscape:version="1.2.2 (732a01da63, 2022-12-09)"
   sodipodi:docname="text-data.svg"
   xmlns:inkscape="http://www.inkscape.org/namespaces/inkscape"
   xmlns:sodipodi="http://sodipodi.sourceforge.net/DTD/sodipodi-0.dtd"
   xmlns="http://www.w3.org/2000/svg"
   xmlns:svg="http://www.w3.org/2000/svg">
  <g>
    <path
           d="m 20.652535,59.822081 h 12.13556 v 3.03389 h 3.033889 v 3.03389 h 3.03389 v 6.06778 h -3.03389 v 3.03389 h -3.033889 v 3.03389 h -12.13556 z m 12.13556,3.03389 h -9.10167 v 12.13556 h 9.10167 v -3.03389 h 3.033889 v -6.06778 h -3.033889 z"
           id="path2113" />
    <path
       d="m 44.923632,62.855971 h 3.03389 v -3.03389 h 12.13556 v 3.03389 h 3.03389 v 15.16945 h -3.03389 v -6.06778 h -12.13556 v 6.06778 h -3.03389 z m 3.03389,6.06778 h 12.13556 v -6.06778 h -12.13556 z"
       id="path2115" />
    <path
       d="m 66.160839,59.822081 h 21.23723 v 3.03389 h -9.10167 v 15.16945 h -3.03389 v -15.16945 h -9.10167 z"
       id="path2117" />
    <path
       d="m 93.465828,62.855971 h 3.03389 v -3.03389 h 12.135562 v 3.03389 h 3.03389 v 15.16945 h -3.03389 v -6.06778 H 96.499718 v 6.06778 h -3.03389 z m 3.03389,6.06778 h 12.135562 v -6.06778 H 96.499718 Z"
       id="path2119" />
  </g>
</svg>
