<?xml version="1.0" encoding="UTF-8" standalone="no"?>
<!-- Created with Inkscape (http://www.inkscape.org/) -->

<svg
   width="512"
   height="512"
   viewBox="0 0 135.46667 135.46667"
   version="1.1"
   id="svg5"
   inkscape:version="1.2.2 (732a01da63, 2022-12-09)"
   sodipodi:docname="text-asm.svg"
   xmlns:inkscape="http://www.inkscape.org/namespaces/inkscape"
   xmlns:sodipodi="http://sodipodi.sourceforge.net/DTD/sodipodi-0.dtd"
   xmlns="http://www.w3.org/2000/svg"
   xmlns:svg="http://www.w3.org/2000/svg">
  <g>
    <path
       d="m 34.495749,60.968286 h 3.033885 v -3.033885 h 12.13554 v 3.033885 h 3.033885 v 15.169425 h -3.033885 v -6.06777 h -12.13554 v 6.06777 h -3.033885 z m 3.033885,6.06777 h 12.13554 v -6.06777 h -12.13554 z"
       id="path2141" />
    <path
       d="m 58.766807,60.968286 h 3.033885 v -3.033885 h 12.13554 v 3.033885 h -12.13554 v 3.033885 h 12.13554 v 3.033885 h 3.033885 v 6.06777 h -3.033885 v 3.033885 h -12.13554 v -3.033885 h -3.033885 v -3.033885 h 3.033885 v 3.033885 h 12.13554 v -6.06777 h -12.13554 v -3.033885 h -3.033885 z"
       id="path2143" />
    <path
       d="m 83.037864,57.934401 h 3.033885 v 3.033885 h 3.033885 v 3.033885 h 6.06777 v -3.033885 h 3.033885 v -3.033885 h 3.033881 v 18.20331 h -3.033881 v -12.13554 h -3.033885 v 3.033885 h -6.06777 v -3.033885 h -3.033885 v 12.13554 h -3.033885 z"
       id="path2145" />
  </g>
</svg>
