<?xml version="1.0" encoding="utf-8"?>
<svg viewBox="0 0 623 538" xmlns="http://www.w3.org/2000/svg">
  <path style="fill: rgb(255, 255, 255);" d="M 0 80 C 0 53.5 21.5 32 48 32 L 144 32 C 170.5 32 192 53.5 192 80 L 192 96 L 384 96 L 384 80 C 384 53.5 405.5 32 432 32 L 528 32 C 554.5 32 576 53.5 576 80 L 576 176 C 576 202.5 554.5 224 528 224 L 432 224 C 405.5 224 384 202.5 384 176 L 384 160 L 192 160 L 192 176 C 192 177.7 191.9 179.4 191.7 181 L 272 288 L 368 288 C 387.343 288 404.022 299.455 411.62 315.948 C 384.496 339.837 367.383 374.825 367.383 413.81 C 367.383 436.865 373.368 458.522 383.869 477.312 C 378.901 479.053 373.561 480 368 480 L 272 480 C 245.5 480 224 458.5 224 432 L 224 336 C 224 334.3 224.1 332.6 224.3 331 L 144 224 L 48 224 C 21.5 224 0 202.5 0 176 Z"/>
  <path style="fill: rgb(255, 255, 255);" d="M 622.334 416.408 C 622.334 483.094 568.274 537.154 501.588 537.154 C 434.902 537.154 380.842 483.094 380.842 416.408 C 380.842 349.722 434.902 295.662 501.588 295.662 C 568.274 295.662 622.334 349.722 622.334 416.408 Z M 490.745 403.257 L 413.374 403.257 L 413.374 430.175 L 490.745 430.175 L 490.745 507.699 L 517.663 507.699 L 517.663 430.175 L 594.878 430.175 L 594.878 403.257 L 517.663 403.257 L 517.663 326.195 L 490.745 326.195 L 490.745 403.257 Z"/>
</svg>