<svg id="ei1hcWCNQES1" xmlns="http://www.w3.org/2000/svg" xmlns:xlink="http://www.w3.org/1999/xlink" viewBox="0 0 576 512" shape-rendering="geometricPrecision" text-rendering="geometricPrecision"><path style="fill: rgb(255, 255, 255);" d="M64,0C28.7,0,0,28.7,0,64v288c0,35.3,28.7,64,64,64h176l-10.7,32h-69.3c-17.7,0-32,14.3-32,32s14.3,32,32,32h256c17.7,0,32-14.3,32-32s-14.3-32-32-32h-69.3L336,416h176c35.3,0,64-28.7,64-64v-288c0-35.3-28.7-64-64-64L64,0ZM512,64v288h-448v-288h448Z"/><rect width="407.858942" height="18.270361" rx="0" ry="0" transform="translate(84.070529 86.515534)" stroke-width="0"/><rect width="407.858942" height="18.270361" rx="0" ry="0" transform="translate(84.070529 113.383712)" stroke-width="0"/><rect width="407.858942" height="18.270361" rx="0" ry="0" transform="matrix(.343875 0 0 1 84.070529 141.326624)" stroke-width="0"/></svg>
