<?xml version="1.0" encoding="utf-8"?>
<svg viewBox="0 0 576 512" xmlns="http://www.w3.org/2000/svg" xmlns:bx="https://boxy-svg.com">
  <path d="M0 80C0 53.5 21.5 32 48 32h96c26.5 0 48 21.5 48 48V96H384V80c0-26.5 21.5-48 48-48h96c26.5 0 48 21.5 48 48v96c0 26.5-21.5 48-48 48H432c-26.5 0-48-21.5-48-48V160H192v16c0 1.7-.1 3.4-.3 5L272 288h96c26.5 0 48 21.5 48 48v96c0 26.5-21.5 48-48 48H272c-26.5 0-48-21.5-48-48V336c0-1.7 .1-3.4 .3-5L144 224H48c-26.5 0-48-21.5-48-48V80z" style="fill: rgb(255, 255, 255);"/>
  <path d="M -200 -413.444 H -92.664 L -92.664 -429.444 L -52.664 -399.444 L -92.664 -369.444 L -92.664 -385.444 H -200 V -413.444 Z" transform="matrix(-1, 0, 0, -1, 0, 0)" style="fill: rgb(255, 255, 255);" bx:shape="arrow -200 -429.444 147.336 60 28 40 0 1@0cf439b6"/>
</svg>